<?xml version="1.0" encoding="UTF-8" standalone="no"?>
<!-- Created with Inkscape (http://www.inkscape.org/) -->

<svg
   xmlns:dc="http://purl.org/dc/elements/1.1/"
   xmlns:cc="http://creativecommons.org/ns#"
   xmlns:rdf="http://www.w3.org/1999/02/22-rdf-syntax-ns#"
   xmlns:svg="http://www.w3.org/2000/svg"
   xmlns="http://www.w3.org/2000/svg"
   xmlns:sodipodi="http://sodipodi.sourceforge.net/DTD/sodipodi-0.dtd"
   xmlns:inkscape="http://www.inkscape.org/namespaces/inkscape"
   width="163.3867mm"
   height="71.624825mm"
   viewBox="0 0 163.3867 71.624825"
   version="1.1"
   id="svg76955"
   inkscape:export-filename="/usr/local/google/home/louquillio/working/oc/artwork/oc-logo-618x271-blk.png"
   inkscape:export-xdpi="96"
   inkscape:export-ydpi="96"
   inkscape:version="0.92.4 (5da689c313, 2019-01-14)"
   sodipodi:docname="oc-logo-blk.svg">
  <defs
     id="defs76949" />
  <sodipodi:namedview
     id="base"
     pagecolor="#000000"
     bordercolor="#666666"
     borderopacity="1.0"
     inkscape:pageopacity="1"
     inkscape:pageshadow="2"
     inkscape:zoom="1"
     inkscape:cx="170.16184"
     inkscape:cy="100.40346"
     inkscape:document-units="mm"
     inkscape:current-layer="layer1"
     showgrid="false"
     showguides="true"
     inkscape:guide-bbox="true"
     inkscape:window-width="2006"
     inkscape:window-height="1310"
     inkscape:window-x="393"
     inkscape:window-y="252"
     inkscape:window-maximized="0"
     fit-margin-top="0"
     fit-margin-left="0"
     fit-margin-right="0"
     fit-margin-bottom="0">
    <sodipodi:guide
       position="78.465277,1.8415444"
       orientation="1,0"
       id="guide77209"
       inkscape:locked="false" />
  </sodipodi:namedview>
  <metadata
     id="metadata76952">
    <rdf:RDF>
      <cc:Work
         rdf:about="">
        <dc:format>image/svg+xml</dc:format>
        <dc:type
           rdf:resource="http://purl.org/dc/dcmitype/StillImage" />
        <dc:title />
      </cc:Work>
    </rdf:RDF>
  </metadata>
  <g
     inkscape:label="Layer 1"
     inkscape:groupmode="layer"
     id="layer1"
     transform="translate(-23.928472,-103.92088)">
    <g
       id="g76926"
       transform="matrix(0.59687353,0,0,0.59687353,18.759397,60.945987)"
       inkscape:export-filename="/home/louquillio/Google Drive/Ocupop/slides/2-dark.png"
       inkscape:export-xdpi="96"
       inkscape:export-ydpi="96">
      <path
         inkscape:connector-curvature="0"
         id="path76893"
         d="M 8.6602515,112 77.942282,71.999999 V 102 l -43.301269,25 v 50 L 8.6602515,192 Z"
         style="fill:#4285f4;fill-opacity:1;stroke:none;stroke-width:0.26458332px;stroke-linecap:butt;stroke-linejoin:miter;stroke-opacity:1" />
      <path
         inkscape:connector-curvature="0"
         id="path76895"
         d="m 43.301268,132 51.961524,-30 v 30 l -25.98076,15 v 30 l -25.980764,15 z"
         style="fill:#db4437;fill-opacity:1;stroke:none;stroke-width:0.26458332px;stroke-linecap:butt;stroke-linejoin:miter;stroke-opacity:1" />
      <path
         inkscape:connector-curvature="0"
         id="path76897"
         d="m 77.942282,152 v 40 L 112.5833,172 v -40 z"
         style="fill:#0f9d58;fill-opacity:1;stroke:none;stroke-width:0.26458332px;stroke-linecap:butt;stroke-linejoin:miter;stroke-opacity:1" />
    </g>
    <g
       id="g77237"
       transform="matrix(0.26458333,0,0,0.26458333,-32.714961,0.78444)"
       inkscape:export-xdpi="96"
       inkscape:export-ydpi="96"
       style="fill:#dddddd;fill-opacity:1;stroke:none">
      <g
         id="g77235"
         style="fill:#dddddd;fill-opacity:1;stroke:none">
        <g
           id="g77219"
           style="fill:#dddddd;fill-opacity:1;stroke:none">
          <path
             class="st2"
             d="m 513.48,525.33 c -5.75,-3.44 -10.28,-8.11 -13.59,-14 -3.31,-5.89 -4.96,-12.38 -4.96,-19.48 0,-7.09 1.65,-13.59 4.96,-19.48 3.31,-5.89 7.85,-10.56 13.64,-14 5.79,-3.44 12.23,-5.17 19.32,-5.17 7.09,0 13.54,1.72 19.32,5.17 5.79,3.45 10.33,8.13 13.64,14.05 3.31,5.93 4.96,12.4 4.96,19.43 0,7.1 -1.65,13.59 -4.96,19.48 -3.31,5.89 -7.85,10.56 -13.64,14 -5.79,3.45 -12.23,5.17 -19.32,5.17 -7.16,-0.01 -13.61,-1.73 -19.37,-5.17 z m 34,-7.08 c 4.44,-2.58 7.96,-6.17 10.54,-10.75 2.58,-4.58 3.88,-9.8 3.88,-15.66 0,-5.85 -1.29,-11.07 -3.88,-15.66 -2.58,-4.58 -6.1,-8.16 -10.54,-10.75 -4.44,-2.58 -9.32,-3.87 -14.62,-3.87 -5.31,0 -10.18,1.29 -14.62,3.87 -4.44,2.58 -7.96,6.17 -10.54,10.75 -2.58,4.58 -3.88,9.8 -3.88,15.66 0,5.86 1.29,11.08 3.88,15.66 2.58,4.58 6.1,8.16 10.54,10.75 4.44,2.58 9.32,3.87 14.62,3.87 5.3,0 10.18,-1.29 14.62,-3.87 z"
             id="path77211"
             inkscape:connector-curvature="0"
             style="fill:#dddddd;fill-opacity:1;stroke:none" />
          <path
             class="st2"
             d="m 581.32,477.58 h 8.37 v 7.54 h 0.41 c 1.65,-2.62 4.03,-4.81 7.13,-6.56 3.1,-1.75 6.68,-2.63 10.75,-2.63 4.41,0 8.47,1.19 12.19,3.57 3.72,2.38 6.68,5.63 8.89,9.76 2.2,4.13 3.31,8.78 3.31,13.95 0,5.17 -1.1,9.82 -3.31,13.95 -2.21,4.13 -5.17,7.39 -8.89,9.77 -3.72,2.38 -7.79,3.57 -12.19,3.57 -4.07,0 -7.66,-0.88 -10.8,-2.64 -3.14,-1.76 -5.49,-3.98 -7.08,-6.66 h -0.41 l 0.41,7.13 v 22.84 h -8.78 z m 33.74,42.58 c 2.58,-1.59 4.65,-3.84 6.2,-6.77 1.55,-2.93 2.33,-6.32 2.33,-10.18 0,-3.86 -0.78,-7.25 -2.33,-10.18 -1.55,-2.93 -3.62,-5.18 -6.2,-6.77 -2.58,-1.58 -5.39,-2.38 -8.42,-2.38 -3.03,0 -5.84,0.78 -8.42,2.33 -2.58,1.55 -4.65,3.79 -6.2,6.72 -1.55,2.93 -2.33,6.35 -2.33,10.28 0,3.86 0.78,7.27 2.33,10.23 1.55,2.96 3.62,5.22 6.2,6.77 2.58,1.55 5.39,2.32 8.42,2.32 3.03,0 5.84,-0.79 8.42,-2.37 z"
             id="path77213"
             inkscape:connector-curvature="0"
             style="fill:#dddddd;fill-opacity:1;stroke:none" />
          <path
             class="st2"
             d="m 651.85,526.98 c -3.89,-2.34 -6.94,-5.58 -9.15,-9.71 -2.21,-4.13 -3.31,-8.82 -3.31,-14.05 0,-4.96 1.03,-9.52 3.1,-13.69 2.07,-4.17 5.01,-7.48 8.84,-9.92 3.82,-2.44 8.22,-3.67 13.18,-3.67 4.96,0 9.32,1.12 13.07,3.36 3.75,2.24 6.63,5.39 8.63,9.46 2,4.07 3,8.75 3,14.05 0,0.97 -0.07,1.65 -0.21,2.07 h -40.71 c 0.14,3.86 1.07,7.11 2.79,9.77 1.72,2.65 3.88,4.63 6.46,5.94 2.58,1.31 5.25,1.96 8.01,1.96 6.47,0 11.47,-3.17 14.98,-9.51 l 7.75,3.72 c -2.21,4.13 -5.25,7.46 -9.15,9.97 -3.89,2.51 -8.56,3.77 -14,3.77 -4.96,-0.01 -9.39,-1.18 -13.28,-3.52 z m 28.06,-29.45 c -0.14,-2.07 -0.72,-4.13 -1.76,-6.2 -1.04,-2.07 -2.7,-3.82 -5.01,-5.27 -2.31,-1.45 -5.25,-2.17 -8.84,-2.17 -3.86,0 -7.2,1.24 -10.02,3.72 -2.82,2.48 -4.62,5.79 -5.37,9.92 z"
             id="path77215"
             inkscape:connector-curvature="0"
             style="fill:#dddddd;fill-opacity:1;stroke:none" />
          <path
             class="st2"
             d="m 699.13,477.58 h 8.37 v 7.65 h 0.41 c 1.45,-2.62 3.72,-4.82 6.82,-6.61 3.1,-1.79 6.41,-2.69 9.92,-2.69 6.27,0 11.04,1.83 14.31,5.48 3.27,3.65 4.91,8.65 4.91,14.98 v 32.45 h -8.68 v -31.11 c 0,-9.23 -4.31,-13.85 -12.92,-13.85 -2.76,0 -5.24,0.79 -7.44,2.38 -2.21,1.59 -3.91,3.65 -5.12,6.2 -1.21,2.55 -1.81,5.24 -1.81,8.06 v 28.31 h -8.78 v -51.25 z"
             id="path77217"
             inkscape:connector-curvature="0"
             style="fill:#dddddd;fill-opacity:1;stroke:none" />
        </g>
        <g
           id="g77233"
           style="fill:#dddddd;fill-opacity:1;stroke:none">
          <path
             class="st2"
             d="m 513.74,621.74 c -5.86,-3.37 -10.45,-8.02 -13.8,-13.95 -3.34,-5.92 -5.01,-12.47 -5.01,-19.63 0,-7.16 1.67,-13.71 5.01,-19.63 3.34,-5.92 7.94,-10.57 13.8,-13.95 5.85,-3.37 12.33,-5.06 19.43,-5.06 5.58,0 10.66,1.05 15.24,3.15 4.58,2.1 8.53,5.08 11.83,8.94 l -6.2,6.1 c -2.76,-3.38 -5.84,-5.85 -9.25,-7.44 -3.41,-1.58 -7.28,-2.38 -11.62,-2.38 -5.31,0 -10.2,1.26 -14.67,3.77 -4.48,2.52 -8.04,6.06 -10.7,10.64 -2.65,4.58 -3.98,9.87 -3.98,15.86 0,5.99 1.33,11.28 3.98,15.86 2.65,4.58 6.22,8.13 10.7,10.64 4.48,2.52 9.37,3.77 14.67,3.77 9.02,0 16.67,-3.68 22.94,-11.06 l 6.3,6.2 c -3.38,4.06 -7.58,7.28 -12.61,9.66 -5.03,2.38 -10.58,3.57 -16.64,3.57 -7.09,0 -13.56,-1.68 -19.42,-5.06 z"
             id="path77221"
             inkscape:connector-curvature="0"
             style="fill:#dddddd;fill-opacity:1;stroke:none" />
          <path
             class="st2"
             d="m 578.74,623.24 c -4,-2.38 -7.11,-5.65 -9.35,-9.82 -2.24,-4.17 -3.36,-8.8 -3.36,-13.9 0,-5.1 1.12,-9.73 3.36,-13.9 2.24,-4.17 5.36,-7.44 9.35,-9.82 4,-2.38 8.51,-3.57 13.54,-3.57 5.03,0 9.56,1.19 13.59,3.57 4.03,2.38 7.16,5.65 9.4,9.82 2.24,4.17 3.36,8.8 3.36,13.9 0,5.1 -1.12,9.73 -3.36,13.9 -2.24,4.17 -5.37,7.44 -9.4,9.82 -4.03,2.38 -8.56,3.57 -13.59,3.57 -5.03,-0.01 -9.54,-1.19 -13.54,-3.57 z m 22.22,-6.77 c 2.69,-1.59 4.84,-3.84 6.46,-6.77 1.62,-2.93 2.43,-6.32 2.43,-10.18 0,-3.86 -0.81,-7.25 -2.43,-10.18 -1.62,-2.93 -3.77,-5.18 -6.46,-6.77 -2.69,-1.58 -5.58,-2.38 -8.68,-2.38 -3.03,0 -5.89,0.79 -8.58,2.38 -2.69,1.59 -4.84,3.84 -6.46,6.77 -1.62,2.93 -2.43,6.32 -2.43,10.18 0,3.86 0.81,7.25 2.43,10.18 1.62,2.93 3.77,5.18 6.46,6.77 2.69,1.59 5.54,2.38 8.58,2.38 3.1,0 5.99,-0.79 8.68,-2.38 z"
             id="path77223"
             inkscape:connector-curvature="0"
             style="fill:#dddddd;fill-opacity:1;stroke:none" />
          <path
             class="st2"
             d="m 635.78,623.29 c -3.72,-2.34 -6.68,-5.6 -8.89,-9.76 -2.21,-4.17 -3.31,-8.84 -3.31,-14 0,-5.16 1.1,-9.83 3.31,-14 2.2,-4.17 5.17,-7.42 8.89,-9.77 3.72,-2.34 7.78,-3.51 12.19,-3.51 3.99,0 7.58,0.88 10.75,2.63 3.17,1.76 5.54,3.94 7.13,6.56 h 0.41 l -0.41,-7.03 v -23.25 h 8.68 v 73.99 h -8.27 v -7.65 h -0.41 c -1.59,2.69 -3.96,4.91 -7.13,6.66 -3.17,1.76 -6.75,2.64 -10.75,2.64 -4.4,0 -8.47,-1.17 -12.19,-3.51 z m 21.96,-6.77 c 2.58,-1.55 4.65,-3.81 6.2,-6.77 1.55,-2.96 2.33,-6.37 2.33,-10.23 0,-3.93 -0.78,-7.35 -2.33,-10.28 -1.55,-2.93 -3.62,-5.17 -6.2,-6.72 -2.58,-1.55 -5.39,-2.33 -8.42,-2.33 -3.03,0 -5.84,0.79 -8.42,2.38 -2.58,1.59 -4.65,3.84 -6.2,6.77 -1.55,2.93 -2.33,6.32 -2.33,10.18 0,3.86 0.78,7.25 2.33,10.18 1.55,2.93 3.62,5.18 6.2,6.77 2.58,1.59 5.39,2.38 8.42,2.38 3.03,0 5.84,-0.78 8.42,-2.33 z"
             id="path77225"
             inkscape:connector-curvature="0"
             style="fill:#dddddd;fill-opacity:1;stroke:none" />
          <path
             class="st2"
             d="m 694.43,623.29 c -3.89,-2.34 -6.94,-5.58 -9.15,-9.71 -2.21,-4.13 -3.31,-8.82 -3.31,-14.05 0,-4.96 1.03,-9.52 3.1,-13.69 2.07,-4.17 5.01,-7.48 8.84,-9.92 3.82,-2.44 8.22,-3.67 13.18,-3.67 4.96,0 9.32,1.12 13.07,3.36 3.75,2.24 6.63,5.39 8.63,9.46 2,4.07 3,8.75 3,14.05 0,0.97 -0.07,1.65 -0.21,2.07 h -40.71 c 0.14,3.86 1.07,7.11 2.79,9.77 1.72,2.65 3.88,4.63 6.46,5.94 2.58,1.31 5.25,1.96 8.01,1.96 6.47,0 11.47,-3.17 14.98,-9.51 l 7.75,3.72 c -2.21,4.13 -5.25,7.46 -9.15,9.97 -3.89,2.51 -8.56,3.77 -14,3.77 -4.96,-0.01 -9.39,-1.18 -13.28,-3.52 z m 28.05,-29.45 c -0.14,-2.07 -0.72,-4.13 -1.76,-6.2 -1.03,-2.07 -2.71,-3.82 -5.01,-5.27 -2.31,-1.45 -5.25,-2.17 -8.84,-2.17 -3.86,0 -7.2,1.24 -10.02,3.72 -2.83,2.48 -4.62,5.79 -5.37,9.92 z"
             id="path77227"
             inkscape:connector-curvature="0"
             style="fill:#dddddd;fill-opacity:1;stroke:none" />
          <path
             class="st2"
             d="m 749.97,623.24 c -4,-2.38 -7.11,-5.65 -9.35,-9.82 -2.24,-4.17 -3.36,-8.8 -3.36,-13.9 0,-5.17 1.12,-9.82 3.36,-13.95 2.24,-4.13 5.36,-7.39 9.35,-9.76 4,-2.38 8.47,-3.57 13.43,-3.57 5.58,0 10.26,1.34 14.05,4.03 3.79,2.69 6.54,6.17 8.27,10.44 l -7.96,3.41 c -2.76,-6.61 -7.72,-9.92 -14.88,-9.92 -2.89,0 -5.63,0.81 -8.22,2.43 -2.58,1.62 -4.67,3.89 -6.25,6.82 -1.59,2.93 -2.38,6.29 -2.38,10.07 0,3.72 0.79,7.06 2.38,10.02 1.58,2.96 3.67,5.25 6.25,6.87 2.58,1.62 5.32,2.43 8.22,2.43 3.65,0 6.79,-0.86 9.4,-2.58 2.62,-1.72 4.58,-4.17 5.89,-7.34 l 7.75,3.31 c -1.72,4.27 -4.51,7.77 -8.37,10.49 -3.86,2.72 -8.58,4.08 -14.16,4.08 -4.95,0 -9.42,-1.18 -13.42,-3.56 z"
             id="path77229"
             inkscape:connector-curvature="0"
             style="fill:#dddddd;fill-opacity:1;stroke:none" />
          <path
             class="st2"
             d="m 797.4,622.67 c -3.79,-2.75 -6.44,-6.17 -7.96,-10.23 l 7.75,-3.41 c 1.38,3.24 3.32,5.72 5.84,7.44 2.51,1.72 5.25,2.58 8.22,2.58 3.31,0 6.05,-0.72 8.22,-2.17 2.17,-1.45 3.25,-3.2 3.25,-5.27 0,-2 -0.81,-3.65 -2.43,-4.96 -1.62,-1.31 -4.39,-2.44 -8.32,-3.41 l -7.03,-1.76 c -3.86,-0.89 -7.15,-2.51 -9.87,-4.86 -2.72,-2.34 -4.08,-5.44 -4.08,-9.3 0,-3.17 0.91,-5.89 2.74,-8.16 1.82,-2.27 4.25,-3.99 7.29,-5.17 3.03,-1.17 6.34,-1.76 9.92,-1.76 4.41,0 8.42,1.02 12.04,3.05 3.62,2.03 6.18,4.91 7.7,8.63 l -7.75,3.31 c -1.1,-2.48 -2.77,-4.3 -5.01,-5.48 -2.24,-1.17 -4.74,-1.76 -7.49,-1.76 -2.69,0 -5.12,0.66 -7.29,1.96 -2.17,1.31 -3.26,3 -3.26,5.06 0,1.79 0.71,3.2 2.12,4.24 1.41,1.03 3.67,1.96 6.77,2.79 l 7.65,1.86 c 5.1,1.31 8.9,3.26 11.42,5.84 2.51,2.58 3.77,5.67 3.77,9.25 0,2.96 -0.86,5.65 -2.58,8.06 -1.72,2.41 -4.13,4.31 -7.23,5.68 -3.1,1.37 -6.61,2.07 -10.54,2.07 -5.45,0.01 -10.07,-1.36 -13.86,-4.12 z"
             id="path77231"
             inkscape:connector-curvature="0"
             style="fill:#dddddd;fill-opacity:1;stroke:none" />
        </g>
      </g>
    </g>
  </g>
</svg>
